# AST/ASF file generated using VICON BodyLanguage
# -----------------------------------------------
:version 1.10
:name VICON
:units
  mass 1.0
  length 0.45
  angle deg
:documentation
   .ast/.asf automatically generated from VICON data using
   VICON BodyBuilder and BodyLanguage model FoxedUp or BRILLIANT.MOD
:root
   order TX TY TZ RX RY RZ
   axis XYZ
   position 0 0 0  
   orientation 0 0 0 
:bonedata
  begin
     id 1 
     name lhipjoint
     direction 0.561001 -0.76473 0.316963 
     length 2.4722 
     axis 0 0 0  XYZ
  end
  begin
     id 2 
     name lfemur
     direction 0.34202 -0.939693 0  
     length 7.59403  
     axis 0 0 20  XYZ
    dof rx ry rz
    limits (-160.0 20.0)
           (-70.0 70.0)
           (-60.0 70.0)
  end
  begin
     id 3 
     name ltibia
     direction 0.34202 -0.939693 0   
     length 7.89655   
     axis 0 0 20   XYZ
    dof rx
    limits (-10.0 170.0)
  end
  begin
     id 4 
     name lfoot
     direction 0.061296 -0.168409 0.98381   
     length 2.73287   
     axis -90 7.62852e-016 20   XYZ
    dof rx rz
    limits (-45.0 90.0)
           (-70.0 20.0)
  end
  begin
     id 5 
     name ltoes
     direction 1.53547e-011 -4.21984e-011 1   
     length 1.37057   
     axis -90 7.62852e-016 20   XYZ
    dof rx
    limits (-90.0 20.0)
  end
  begin
     id 6 
     name rhipjoint
     direction -0.559611 -0.765599 0.317323   
     length 2.46939  
     axis 0 0 0  XYZ 
  end
  begin
     id 7 
     name rfemur
     direction -0.34202 -0.939693 0   
     length 7.53712   
     axis 0 0 -20   XYZ
    dof rx ry rz
    limits (-160.0 20.0)
           (-70.0 70.0)
           (-70.0 60.0)
  end
  begin
     id 8 
     name rtibia
     direction -0.34202 -0.939693 0   
     length 8.12549   
     axis 0 0 -20   XYZ
    dof rx
    limits (-10.0 170.0)
 end
 begin
     id 9 
     name rfoot
     direction -0.066984 -0.184037 0.980634   
     length 2.67541  
     axis -90 -7.62852e-016 -20   XYZ
    dof rx rz
    limits (-45.0 90.0)
           (-20.0 70.0)
  end
  begin
     id 10 
     name rtoes
     direction -1.53549e-011 -4.21786e-011 1   
     length 1.34085   
     axis -90 -7.62852e-016 -20   XYZ
    dof rx
    limits (-90.0 20.0)
  end
  begin
     id 11 
     name lowerback
     direction -0.0522728 0.992594 -0.109658   
     length 2.05633   
     axis 0 0 0   XYZ
    dof rx ry rz
    limits (-20.0 45.0)
           (-30.0 30.0)
           (-30.0 30.0)
  end
  begin
     id 12 
     name upperback
     direction 0.00589338 0.999977 0.00335704   
     length 2.05845   
     axis 0 0 0   XYZ
    dof rx ry rz
    limits (-20.0 45.0)
           (-30.0 30.0)
           (-30.0 30.0)
  end
  begin
     id 13 
     name thorax
     direction 0.0292928 0.998059 0.0549487   
     length 2.09281   
     axis 0 0 0   XYZ
    dof rx ry rz
    limits (-20.0 45.0)
           (-30.0 30.0)
           (-30.0 30.0)
  end
  begin
     id 14 
     name lowerneck
     direction 0.0356368 0.980775 0.191858   
     length 1.84767   
     axis 0 0 0   XYZ
    dof rx ry rz
    limits (-20.0 45.0)
           (-30.0 30.0)
           (-30.0 30.0)
  end
  begin
     id 15 
     name upperneck
     direction -0.0227605 0.98931 -0.14404   
     length 1.89582   
     axis 0 0 0   XYZ
    dof rx ry rz
    limits (-20.0 45.0)
           (-30.0 30.0)
           (-30.0 30.0)
  end
  begin
     id 16
     name head
     direction -0.00932985 0.997511 -0.0698904  
     length 1.90213  
     axis 0 0 0   XYZ
    dof rx ry rz
    limits (-20.0 45.0)
           (-30.0 30.0)
           (-30.0 30.0)
  end
  begin
     id 17 
     name lclavicle
     direction 0.873442 0.479511 0.0846686  
     length 3.41193  
     axis 0 0 0   XYZ
    dof ry rz
    limits (-20.0 10.0)
           (0.0 20.0)
  end
  begin
     id 18 
     name lhumerus
     direction 1 -4.4897e-011 -5.62117e-018   
     length 5.59864   
     axis 180 -30 -90   XYZ
    dof rx ry rz
    limits (-60.0 90.0)
           (-90.0 90.0)
           (-90.0 90.0)
  end
  begin
     id 19
     name lradius
     direction 1 -4.48966e-011 -6.26295e-027   
     length 3.59542   
     axis 180 -30 -90   XYZ
    dof rx
    limits (-10.0 170.0)
  end
  begin
     id 20
     name lwrist
     direction 1 -4.48947e-011 -1.74096e-026   
     length 1.79771   
     axis 1.04567e-014 90 90   XYZ
    dof ry
    limits (-180.0 0.0)
 end
  begin
     id 21 
     name lhand
     direction 1 -4.49085e-011 -3.48469e-026   
     length 0.572014   
     axis 2.22196e-014 90 90   XYZ
    dof rx rz
    limits (-90.0 90.0)
           (-45.0 45.0)
  end
  begin
     id 22 
     name lfingers
     direction 1 -4.48884e-011 -6.96135e-026   
     length 0.461173   
     axis 4.44383e-014 90 90   XYZ
    dof rx
    limits (0.0 90.0)
  end
  begin
     id 23
     name lthumb
     direction 0.707107 -6.34976e-011 0.707107   
     length 0.662154   
     axis -90 45 -5.4397e-014   XYZ
    dof rx rz
    limits (-45.0 45.0)
           (-45.0 45.0)
  end
  begin
     id 24 
     name rclavicle
     direction -0.890242 0.443271 0.104786   
     length 3.46753  
     axis 0 0 0   XYZ 
    dof ry rz
    limits (-10.0 20.0)
           (-20.0 0.0)
  end
  begin
     id 25 
     name rhumerus
     direction -1 -4.48963e-011 -5.41723e-018  
     length 5.8094   
     axis 180 30 90   XYZ
    dof rx ry rz
    limits (-90.0 60.0)
           (-90.0 90.0)
           (-90.0 90.0)
  end
  begin
     id 26 
     name rradius
     direction -1 -4.48958e-011 -6.51059e-027   
     length 3.66953   
     axis 180 30 90   XYZ
    dof rx
    limits (-10.0 170.0)
  end
  begin
     id 27 
     name rwrist
     direction -1 -4.48975e-011 -1.74124e-026   
     length 1.83476   
     axis 1.04567e-014 -90 -90   XYZ
    dof ry
    limits (-180.0 0.0)
  end
  begin
     id 28
     name rhand
     direction -1 -4.49013e-011 -3.48326e-026   
     length 0.57843   
     axis 2.22196e-014 -90 -90   XYZ
    dof rx rz
    limits (-90.0 90.0)
           (-45.0 45.0)
  end
  begin
     id 29
     name rfingers
     direction -1 -4.49023e-011 -6.9669e-026   
     length 0.466345   
     axis 4.44383e-014 -90 -90   XYZ
    dof rx
    limits (0.0 90.0)
  end
  begin
     id 30
     name rthumb
     direction -0.707107 -6.34926e-011 0.707107   
     length 0.669581   
     axis -90 -45 5.4397e-014   XYZ
    dof rx rz
    limits (-45.0 45.0)
           (-45.0 45.0)
  end
:hierarchy
  begin
    root lhipjoint rhipjoint lowerback
    lhipjoint lfemur
    lfemur ltibia
    ltibia lfoot
    lfoot ltoes
    rhipjoint rfemur
    rfemur rtibia
    rtibia rfoot
    rfoot rtoes
    lowerback upperback
    upperback thorax
    thorax lowerneck lclavicle rclavicle
    lowerneck upperneck
    upperneck head
    lclavicle lhumerus
    lhumerus lradius
    lradius lwrist
    lwrist lhand lthumb
    lhand lfingers
    rclavicle rhumerus
    rhumerus rradius
    rradius rwrist
    rwrist rhand rthumb
    rhand rfingers
  end

#!OML:ASF H:\SkateBoarding\Project 1\Capture day 1\Session 1\Skater.ASF
:FULLY-SPECIFIED
:DEGREES
1
root 5.02666 18.3746 -28.0186 4.37043 24.8626 1.95591
lowerback 1.52851 -0.667323 -3.34604
upperback -3.00074 -1.06733 -2.05717
thorax -3.92964 -0.458137 -0.194896
lowerneck -18.4985 2.67096 5.80251
upperneck 35.732 2.56978 -1.01426
head 15.8908 1.82297 -0.944812
rclavicle 3.6303e-014 1.59028e-014
rhumerus -55.0031 -41.7469 -57.2312
rradius 25.8429
rwrist -8.35093
rhand -46.3522 -8.61515
rfingers 7.12502
rthumb -19.0844 -37.6988
lclavicle 3.6303e-014 1.59028e-014
lhumerus -30.4572 -7.11181 89.848
lradius 34.9472
lwrist 20.6741
lhand -25.1627 12.27
lfingers 7.12502
lthumb 1.35444 42.2455
rfemur -8.512 6.8372 21.78
rtibia 32.8184
rfoot -36.3564 3.65966
rtoes -14.5659
lfemur -14.1258 -31.2728 -20.7061
ltibia 32.6891
lfoot -46.018 6.07538
ltoes -5.01916
2
root 5.02675 18.3748 -28.0222 4.34533 24.7815 1.96285
lowerback 1.50741 -0.699386 -3.39739
upperback -2.97527 -1.11011 -2.06301
thorax -3.88967 -0.478684 -0.170538
lowerneck -18.4903 2.64444 5.78557
upperneck 35.7521 2.52762 -0.995936
head 15.8961 1.80538 -0.942273
rclavicle -6.13748e-015 1.27222e-014
rhumerus -54.9351 -41.7827 -57.21
rradius 25.7557
rwrist -8.2418
rhand -46.3784 -8.55498
rfingers 7.12502
rthumb -19.1096 -37.6362
lclavicle -6.13748e-015 1.27222e-014
lhumerus -30.458 -7.27803 89.8562
lradius 34.8437
lwrist 20.674
lhand -24.9521 12.197
lfingers 7.12502
lthumb 1.55782 42.1711
rfemur -8.48486 6.82099 21.7545
rtibia 32.8213
rfoot -36.3002 3.79245
rtoes -14.4758
lfemur -14.0849 -31.1901 -20.7394
ltibia 32.6647
lfoot -46.0238 6.07919
ltoes -4.97371
3
root 5.02066 18.371 -28.0196 4.26273 24.7593 2.01954
lowerback 1.49598 -0.718771 -3.58198
upperback -2.90249 -1.13998 -2.09914
thorax -3.8048 -0.490255 -0.103727
lowerneck -18.5007 2.57552 5.79657
upperneck 35.7683 2.39393 -0.938828
head 15.9002 1.75905 -0.945022
rclavicle -1.70209e-014 -1.98785e-014
rhumerus -55.031 -41.9788 -57.068
rradius 25.6476
rwrist -8.07128
rhand -46.4056 -8.43646
rfingers 7.12502
rthumb -19.1358 -37.5151
lclavicle -1.70209e-014 -1.98785e-014
lhumerus -30.4606 -7.6054 89.8636
lradius 34.7075
lwrist 20.6448
lhand -24.7332 12.1292
lfingers 7.12502
lthumb 1.76923 42.1016
rfemur -8.32919 7.08981 21.7878
rtibia 32.8453
rfoot -36.5991 3.67881
rtoes -14.4679
lfemur -13.9253 -31.1623 -20.8432
ltibia 32.6321
lfoot -46.0255 6.09592
ltoes -5.1178
4
root 5.01595 18.3698 -28.0211 4.23998 24.7399 2.10111
lowerback 1.51768 -0.760438 -3.74664
upperback -2.86841 -1.20171 -2.12435
thorax -3.77807 -0.517122 -0.0348258
lowerneck -18.5188 2.51345 5.75578
upperneck 35.7973 2.29523 -0.896826
head 15.9128 1.71803 -0.938597
rclavicle -4.40308e-014 0
rhumerus -55.0724 -42.0938 -56.9655
rradius 25.5542
rwrist -7.91028
rhand -46.3992 -8.3169
rfingers 7.12502
rthumb -19.1296 -37.3961
lclavicle -4.40308e-014 0
lhumerus -30.4753 -7.86283 89.9021
lradius 34.4699
lwrist 20.3032
lhand -25.3196 12.6262
lfingers 7.12502
lthumb 1.20287 42.6025
rfemur -8.26999 7.09027 21.7292
rtibia 32.8691
rfoot -36.67 3.75442
rtoes -14.5758
lfemur -13.8455 -31.1442 -20.9466
ltibia 32.5964
lfoot -45.9873 6.18243
ltoes -5.13003
5
root 5.017 18.3715 -28.0294 4.22721 24.6239 2.10477
lowerback 1.54537 -0.774854 -3.75131
upperback -2.84161 -1.22194 -2.13029
thorax -3.76544 -0.527629 -0.0371121
lowerneck -18.5552 2.46973 5.6611
upperneck 35.7947 2.23231 -0.829262
head 15.9143 1.68737 -0.904788
rclavicle -6.12257e-014 -2.38542e-015
rhumerus -54.9987 -42.0664 -57.0313
rradius 25.5485
rwrist -7.9664
rhand -46.4866 -8.35218
rfingers 7.12502
rthumb -19.2136 -37.4231
lclavicle -6.12257e-014 -2.38542e-015
lhumerus -30.4627 -8.03255 89.9519
lradius 34.2386
lwrist 20.1104
lhand -25.3862 12.8745
lfingers 7.12502
lthumb 1.13854 42.8512
rfemur -8.3273 6.95954 21.6622
rtibia 32.914
rfoot -36.4095 3.976
rtoes -14.7196
lfemur -13.8182 -31.0321 -20.9716
ltibia 32.5519
lfoot -45.9995 6.12038
ltoes -4.98057
6
root 5.01838 18.3725 -28.0377 4.23312 24.5304 2.14545
lowerback 1.57602 -0.770167 -3.74866
upperback -2.83025 -1.21843 -2.18056
thorax -3.77232 -0.526695 -0.0902024
lowerneck -18.5619 2.37905 5.6246
upperneck 35.7934 2.09162 -0.794135
head 15.9077 1.62804 -0.910155
rclavicle -2.1593e-014 -1.43125e-014
rhumerus -55.0562 -42.1437 -56.9633
rradius 25.5242
rwrist -7.99258
rhand -46.302 -8.18212
rfingers 7.12502
rthumb -19.0361 -37.2706
lclavicle -2.1593e-014 -1.43125e-014
lhumerus -30.462 -8.2399 89.9679
lradius 33.9283
lwrist 19.9322
lhand -25.2328 12.9939
lfingers 7.12502
lthumb 1.28671 42.9698
rfemur -8.38086 6.84889 21.565
rtibia 32.9675
rfoot -36.294 4.09728
rtoes -14.7755
lfemur -13.7979 -30.9501 -21.0354
ltibia 32.5168
lfoot -45.9961 6.09581
ltoes -4.86019
